<svg id="Hill" xmlns="http://www.w3.org/2000/svg" xmlns:xlink="http://www.w3.org/1999/xlink" viewBox="0 0 1920 1080"><defs><style>.cls-1{fill:#1c2416;}.cls-2{fill:url(#linear-gradient);}</style><linearGradient id="linear-gradient" x1="250.5" y1="642.45" x2="250.5" y2="1138.54" gradientUnits="userSpaceOnUse"><stop offset="0" stop-color="#293b25"/><stop offset="0.02" stop-color="#283924"/><stop offset="0.24" stop-color="#162014"/><stop offset="0.47" stop-color="#0a0e09"/><stop offset="0.72" stop-color="#020302"/><stop offset="1"/></linearGradient></defs><title>hill</title><path class="cls-1" d="M372.5,654c-1.26-2.72-9-33,4-68,2.2-5.93,30-45,51-82,11.27-19.85,31-58,53-67s39.47-15.14,54-12c10.1,2.18,18,7,24.94,10.63A60.38,60.38,0,0,1,571.5,445s0-9-11-16c12.07-2.95,28.62-6.16,37-11-22.1,6.31-39.35,6.14-50,0,10.69-4.21,18.72-9.51,28-16-11.45,5.16-39,11-70.49,12a2.05,2.05,0,0,1-2.11-1.81c-.43-4.15,3.27-14.88,44.6-28.15,7.45.85,17.39,7.36,24,11-1.44-3.55-10.77-11.7-15-14,7-2,19-11,19-11s-11,4-20,5a137.77,137.77,0,0,0-32,8,148.36,148.36,0,0,1,24.57-32.84c2.26-2.26,11.51-9.41,13.43-11.16l-10.35,4.56C552,341,549.5,335,549.5,335a25.21,25.21,0,0,1-3.24,11.49c-1.76,2.51-6.58,3.89-9.76,7.51,1.34-3.91.25-10.86-1-18-1.83,10.51-4.58,20.36-9,29-18.35,29.94-44.42,55.91-65.75,65.09a4,4,0,0,1-5-1.46c-4.05-6.39-1.55-22.55-9.22-33.63,4.15-12.28,9.06-22.66,16-28,11-13,22-29,22-29s-10,7-17,15c1.71-8.77-.35-19.48-4-31,.88,11.92,1,23-2,31-7.59,8.66-13.84,19.45-19,32-4.59-6.23-7.36-14.49-9-24a71.61,71.61,0,0,1,4-27c-3.85,4.08-7,9.54-9,17-4-8.13-3.48-22.4-2-38-2.34,5.06-4.77,10.15-5,21-4.1-1.6-9.67-9.85-15-17l11,24c1.71,11.75,5.1,22.86,11,33-8.33.44-15.35,2.18-22,3,9.61,1.39,18.76,2.53,24.74,9.69a3,3,0,0,1,.45.67c9.84,18.26,13.66,36.75,6.81,55.64-4.35,13.79-9.92,26-21.57,30.5a4.8,4.8,0,0,1-2.9.17c-12.74-3.22-18.47-14.08-23.53-25.67l-16-51c-2.09-21,4.49-42.44,10-54a77.14,77.14,0,0,0-19,37c-3.92-3.61-9-13.87-12-23a99.17,99.17,0,0,1,4-21c6-9,11-12,11-12a22.39,22.39,0,0,0-12,8c-.95-3.9-5-9-5-9s2.68,6.64,2,12l-7,15c-2.18-2.84-8.77-7.3-16-12,7.33,9.65,14.28,19.05,16,25,9.76,17.46,17.8,33.8,21,47,1.24,8.78,2.8,18,2,25-5.45-1.53-10.16-5.69-14.14-9.24a4.4,4.4,0,0,1-1.26-1.84c-4.89-13.63-4.72-30.38-6.6-47.92l-3,23c-3.54-6.76-7-12-16-14,0,0,16.85,14.32,15.75,29.83A2.78,2.78,0,0,1,340,417,221.5,221.5,0,0,1,319.5,403c-11.83-9.8-17.94-23.24-21-33-1,14,8.62,27.74,8.62,27.74S294.5,398,284.5,401c0,0,28-1,38,13,3,4.22-10.95,7.72-19,12,0,0,24.37-4.94,31-2,7.56,3.36,22.19,15.59,31,21,23.29,14.29,26.59,39.12,23.21,59.33-3.45,20.54-21.4,40.87-40.46,60.88a4.12,4.12,0,0,1-1.84.86c-14.91,4.93-7,24.37-7.07,25.59-.31,11.62-.62,57.76-5.84,67.34C328,669,294,687,261,690c68.27-3.34,131.06-9,176-22C407,662,383.52,677.82,372.5,654Z"/><path class="cls-2" d="M501,657c-53,75-91,268-11,423H0V703C165.71,702.46,332.8,686.17,501,657Z"/></svg>