<svg id="Trees1" xmlns="http://www.w3.org/2000/svg" viewBox="0 0 1920 1080"><defs><style>.cls-1{fill:#2d362f;}.cls-2{fill:#3b4a3e;}.cls-3{fill:#334035;}.cls-4{fill:#2b362d;}.cls-5{fill:#28302a;}.cls-6{fill:#252e27;}.cls-7{fill:#334036;}.cls-8{fill:#273028;}</style></defs><title>trees1</title><g id="Tree2"><polygon class="cls-1" points="32.89 803 39.28 643 45.67 803 32.89 803"/><path class="cls-2" d="M39.5,632s4.06,35,16.75,43H22.75C35.44,667,39.5,632,39.5,632Z"/><path class="cls-2" d="M39.5,641s7.27,55.35,30,68h-60C32.23,696.35,39.5,641,39.5,641Z"/><path class="cls-2" d="M39.5,668S51.26,734.74,88,750H-9C27.74,734.74,39.5,668,39.5,668Z"/></g><g id="Tree2-2" data-name="Tree2"><polygon class="cls-1" points="110.89 794 117.28 634 123.67 794 110.89 794"/><path class="cls-2" d="M117.5,623s4.06,35,16.75,43h-33.5C113.44,658,117.5,623,117.5,623Z"/><path class="cls-2" d="M117.5,632s7.27,55.35,30,68h-60C110.23,687.35,117.5,632,117.5,632Z"/><path class="cls-2" d="M117.5,659s11.76,66.74,48.5,82H69C105.74,725.74,117.5,659,117.5,659Z"/></g><g id="Tree2-3" data-name="Tree2"><polygon class="cls-1" points="230.89 775 237.28 615 243.67 775 230.89 775"/><path class="cls-2" d="M237.5,604s4.06,35,16.75,43h-33.5C233.44,639,237.5,604,237.5,604Z"/><path class="cls-2" d="M237.5,613s7.27,55.35,30,68h-60C230.23,668.35,237.5,613,237.5,613Z"/><path class="cls-2" d="M237.5,640s11.76,66.74,48.5,82H189C225.74,706.74,237.5,640,237.5,640Z"/></g><g id="Tree2-4" data-name="Tree2"><polygon class="cls-1" points="399.89 715 406.28 555 412.67 715 399.89 715"/><path class="cls-2" d="M406.5,544s4.06,35,16.75,43h-33.5C402.44,579,406.5,544,406.5,544Z"/><path class="cls-2" d="M406.5,553s7.27,55.35,30,68h-60C399.23,608.35,406.5,553,406.5,553Z"/><path class="cls-2" d="M406.5,580s11.76,66.74,48.5,82H358C394.74,646.74,406.5,580,406.5,580Z"/></g><g id="Tree2-5" data-name="Tree2"><polygon class="cls-1" points="748.89 715 755.28 555 761.67 715 748.89 715"/><path class="cls-2" d="M755.5,544s4.06,35,16.75,43h-33.5C751.44,579,755.5,544,755.5,544Z"/><path class="cls-2" d="M755.5,553s7.27,55.35,30,68h-60C748.23,608.35,755.5,553,755.5,553Z"/><path class="cls-2" d="M755.5,580s11.76,66.74,48.5,82H707C743.74,646.74,755.5,580,755.5,580Z"/></g><g id="Tree2-6" data-name="Tree2"><polygon class="cls-1" points="1031.07 726 1035.35 566 1039.64 726 1031.07 726"/><path class="cls-2" d="M1035.5,555s2.72,35,11.23,43h-22.46C1032.78,590,1035.5,555,1035.5,555Z"/><path class="cls-2" d="M1035.5,564s4.87,55.35,20.09,68h-40.18C1030.63,619.35,1035.5,564,1035.5,564Z"/><path class="cls-2" d="M1035.5,591s7.88,66.74,32.5,82h-65C1027.62,657.74,1035.5,591,1035.5,591Z"/></g><g id="Tree2-7" data-name="Tree2"><polygon class="cls-1" points="875.07 715 879.35 533.48 883.64 715 875.07 715"/><path class="cls-2" d="M879.5,521s2.72,39.71,11.23,48.78H868.27C876.78,560.71,879.5,521,879.5,521Z"/><path class="cls-2" d="M879.5,531.21s4.87,62.79,20.09,77.15H859.41C874.63,594,879.5,531.21,879.5,531.21Z"/><path class="cls-2" d="M879.5,561.84s7.88,75.72,32.5,93H847C871.62,637.56,879.5,561.84,879.5,561.84Z"/></g><g id="Tree2-8" data-name="Tree2"><polygon class="cls-1" points="1127.07 744 1131.35 562.48 1135.64 744 1127.07 744"/><path class="cls-2" d="M1131.5,550s2.72,39.71,11.23,48.78h-22.46C1128.78,589.71,1131.5,550,1131.5,550Z"/><path class="cls-2" d="M1131.5,560.21s4.87,62.79,20.09,77.15h-40.18C1126.63,623,1131.5,560.21,1131.5,560.21Z"/><path class="cls-2" d="M1131.5,590.84s7.88,75.72,32.5,93h-65C1123.62,666.56,1131.5,590.84,1131.5,590.84Z"/></g><g id="Tree2-9" data-name="Tree2"><polygon class="cls-1" points="1248.07 774 1252.35 592.48 1256.64 774 1248.07 774"/><path class="cls-2" d="M1252.5,580s2.72,39.71,11.23,48.78h-22.46C1249.78,619.71,1252.5,580,1252.5,580Z"/><path class="cls-2" d="M1252.5,590.21s4.87,62.79,20.09,77.15h-40.18C1247.63,653,1252.5,590.21,1252.5,590.21Z"/><path class="cls-2" d="M1252.5,620.84s7.88,75.72,32.5,93h-65C1244.62,696.56,1252.5,620.84,1252.5,620.84Z"/></g><g id="Tree2-10" data-name="Tree2"><polygon class="cls-1" points="607.91 718 611.86 558 615.82 718 607.91 718"/><path class="cls-2" d="M612,547s2.51,35,10.36,43H601.64C609.49,582,612,547,612,547Z"/><path class="cls-2" d="M612,556s4.5,55.35,18.55,68h-37.1C607.5,611.35,612,556,612,556Z"/><path class="cls-2" d="M612,583s7.27,66.74,30,82H582C604.73,649.74,612,583,612,583Z"/></g><g id="Darker"><g id="Tree2-11" data-name="Tree2"><polygon class="cls-1" points="1384.07 810 1388.35 628.48 1392.64 810 1384.07 810"/><path class="cls-3" d="M1388.5,616s2.72,39.71,11.23,48.78h-22.46C1385.78,655.71,1388.5,616,1388.5,616Z"/><path class="cls-3" d="M1388.5,626.21s4.87,62.79,20.09,77.15h-40.18C1383.63,689,1388.5,626.21,1388.5,626.21Z"/><path class="cls-3" d="M1388.5,656.84s7.88,75.72,32.5,93h-65C1380.62,732.56,1388.5,656.84,1388.5,656.84Z"/></g><g id="Tree2-12" data-name="Tree2"><polygon class="cls-1" points="1491.07 810 1495.35 628.48 1499.64 810 1491.07 810"/><path class="cls-4" d="M1495.5,616s2.72,39.71,11.23,48.78h-22.46C1492.78,655.71,1495.5,616,1495.5,616Z"/><path class="cls-4" d="M1495.5,626.21s4.87,62.79,20.09,77.15h-40.18C1490.63,689,1495.5,626.21,1495.5,626.21Z"/><path class="cls-4" d="M1495.5,656.84s7.88,75.72,32.5,93h-65C1487.62,732.56,1495.5,656.84,1495.5,656.84Z"/></g><g id="Tree2-13" data-name="Tree2"><polygon class="cls-5" points="1820.91 877 1824.86 717 1828.82 877 1820.91 877"/><path class="cls-6" d="M1825,706s2.51,35,10.36,43h-20.72C1822.49,741,1825,706,1825,706Z"/><path class="cls-6" d="M1825,715s4.5,55.35,18.55,68h-37.1C1820.5,770.35,1825,715,1825,715Z"/><path class="cls-6" d="M1825,742s7.27,66.74,30,82h-60C1817.73,808.74,1825,742,1825,742Z"/></g><g id="Tree2-14" data-name="Tree2"><polygon class="cls-5" points="1610.89 800 1617.28 640 1623.67 800 1610.89 800"/><path class="cls-7" d="M1617.5,629s4.06,35,16.75,43h-33.5C1613.44,664,1617.5,629,1617.5,629Z"/><path class="cls-7" d="M1617.5,638s7.27,55.35,30,68h-60C1610.23,693.35,1617.5,638,1617.5,638Z"/><path class="cls-7" d="M1617.5,665s11.76,66.74,48.5,82h-97C1605.74,731.74,1617.5,665,1617.5,665Z"/></g><g id="Tree2-15" data-name="Tree2"><polygon class="cls-5" points="1773.89 862 1780.28 702 1786.67 862 1773.89 862"/><path class="cls-6" d="M1780.5,691s4.06,35,16.75,43h-33.5C1776.44,726,1780.5,691,1780.5,691Z"/><path class="cls-6" d="M1780.5,700s7.27,55.35,30,68h-60C1773.23,755.35,1780.5,700,1780.5,700Z"/><path class="cls-6" d="M1780.5,727s11.76,66.74,48.5,82h-97C1768.74,793.74,1780.5,727,1780.5,727Z"/></g><g id="Tree2-16" data-name="Tree2"><polygon class="cls-5" points="1688.89 851 1695.28 691 1701.67 851 1688.89 851"/><path class="cls-8" d="M1695.5,680s4.06,35,16.75,43h-33.5C1691.44,715,1695.5,680,1695.5,680Z"/><path class="cls-8" d="M1695.5,689s7.27,55.35,30,68h-60C1688.23,744.35,1695.5,689,1695.5,689Z"/><path class="cls-8" d="M1695.5,716s11.76,66.74,48.5,82h-97C1683.74,782.74,1695.5,716,1695.5,716Z"/></g><g id="Tree2-17" data-name="Tree2"><polygon class="cls-5" points="1894.89 879 1901.28 719 1907.67 879 1894.89 879"/><path class="cls-6" d="M1901.5,708s4.06,35,16.75,43h-33.5C1897.44,743,1901.5,708,1901.5,708Z"/><path class="cls-6" d="M1901.5,717s7.27,55.35,30,68h-60C1894.23,772.35,1901.5,717,1901.5,717Z"/><path class="cls-6" d="M1901.5,744s11.76,66.74,48.5,82h-97C1889.74,810.74,1901.5,744,1901.5,744Z"/></g></g></svg>