<svg xmlns="http://www.w3.org/2000/svg" viewBox="0 0 1920 1080"><defs><style>.cls-1{opacity:0.25;}.cls-2{fill:#202621;}.cls-3{fill:#2a3831;}</style></defs><title>trees3</title><g id="Trees3" class="cls-1"><g id="Tree2"><polygon class="cls-2" points="152.89 750 159.28 590 165.67 750 152.89 750"/><path class="cls-3" d="M159.5,579s4.06,35,16.75,43h-33.5C155.44,614,159.5,579,159.5,579Z"/><path class="cls-3" d="M159.5,588s7.27,55.35,30,68h-60C152.23,643.35,159.5,588,159.5,588Z"/><path class="cls-3" d="M159.5,615s11.76,66.74,48.5,82H111C147.74,681.74,159.5,615,159.5,615Z"/></g><g id="Tree2-2" data-name="Tree2"><polygon class="cls-2" points="334.89 700 341.28 540 347.67 700 334.89 700"/><path class="cls-3" d="M341.5,529s4.06,35,16.75,43h-33.5C337.44,564,341.5,529,341.5,529Z"/><path class="cls-3" d="M341.5,538s7.27,55.35,30,68h-60C334.23,593.35,341.5,538,341.5,538Z"/><path class="cls-3" d="M341.5,565s11.76,66.74,48.5,82H293C329.74,631.74,341.5,565,341.5,565Z"/></g><g id="Tree2-3" data-name="Tree2"><polygon class="cls-2" points="464.89 707 471.28 547 477.67 707 464.89 707"/><path class="cls-3" d="M471.5,536s4.06,35,16.75,43h-33.5C467.44,571,471.5,536,471.5,536Z"/><path class="cls-3" d="M471.5,545s7.27,55.35,30,68h-60C464.23,600.35,471.5,545,471.5,545Z"/><path class="cls-3" d="M471.5,572s11.76,66.74,48.5,82H423C459.74,638.74,471.5,572,471.5,572Z"/></g><g id="Tree2-4" data-name="Tree2"><polygon class="cls-2" points="628.89 654 635.28 494 641.67 654 628.89 654"/><path class="cls-3" d="M635.5,483s4.06,35,16.75,43h-33.5C631.44,518,635.5,483,635.5,483Z"/><path class="cls-3" d="M635.5,492s7.27,55.35,30,68h-60C628.23,547.35,635.5,492,635.5,492Z"/><path class="cls-3" d="M635.5,519s11.76,66.74,48.5,82H587C623.74,585.74,635.5,519,635.5,519Z"/></g><g id="Tree2-5" data-name="Tree2"><polygon class="cls-2" points="923.89 658 930.28 498 936.67 658 923.89 658"/><path class="cls-3" d="M930.5,487s4.06,35,16.75,43h-33.5C926.44,522,930.5,487,930.5,487Z"/><path class="cls-3" d="M930.5,496s7.27,55.35,30,68h-60C923.23,551.35,930.5,496,930.5,496Z"/><path class="cls-3" d="M930.5,523s11.76,66.74,48.5,82H882C918.74,589.74,930.5,523,930.5,523Z"/></g><g id="Tree2-6" data-name="Tree2"><polygon class="cls-2" points="969.89 707 976.28 547 982.67 707 969.89 707"/><path class="cls-3" d="M976.5,536s4.06,35,16.75,43h-33.5C972.44,571,976.5,536,976.5,536Z"/><path class="cls-3" d="M976.5,545s7.27,55.35,30,68h-60C969.23,600.35,976.5,545,976.5,545Z"/><path class="cls-3" d="M976.5,572s11.76,66.74,48.5,82H928C964.74,638.74,976.5,572,976.5,572Z"/></g><g id="Tree2-7" data-name="Tree2"><polygon class="cls-2" points="1355.64 735 1362.76 575 1369.87 735 1355.64 735"/><path class="cls-3" d="M1363,564s4.52,35,18.65,43h-37.3C1358.48,599,1363,564,1363,564Z"/><path class="cls-3" d="M1363,573s8.09,55.35,33.38,68h-66.76C1354.91,628.35,1363,573,1363,573Z"/><path class="cls-3" d="M1363,600s13.09,66.74,54,82H1309C1349.91,666.74,1363,600,1363,600Z"/></g><g id="Tree2-8" data-name="Tree2"><polygon class="cls-2" points="1409.64 730 1416.76 570 1423.87 730 1409.64 730"/><path class="cls-3" d="M1417,559s4.52,35,18.65,43h-37.3C1412.48,594,1417,559,1417,559Z"/><path class="cls-3" d="M1417,568s8.09,55.35,33.38,68h-66.76C1408.91,623.35,1417,568,1417,568Z"/><path class="cls-3" d="M1417,595s13.09,66.74,54,82H1363C1403.91,661.74,1417,595,1417,595Z"/></g><g id="Tree2-9" data-name="Tree2"><polygon class="cls-2" points="548.07 671 552.35 511 556.64 671 548.07 671"/><path class="cls-3" d="M552.5,500s2.72,35,11.23,43H541.27C549.78,535,552.5,500,552.5,500Z"/><path class="cls-3" d="M552.5,509s4.87,55.35,20.09,68H532.41C547.63,564.35,552.5,509,552.5,509Z"/><path class="cls-3" d="M552.5,536s7.88,66.74,32.5,82H520C544.62,602.74,552.5,536,552.5,536Z"/></g><g id="Tree2-10" data-name="Tree2"><polygon class="cls-2" points="832.07 635 836.35 453.48 840.64 635 832.07 635"/><path class="cls-3" d="M836.5,441s2.72,39.71,11.23,48.78H825.27C833.78,480.71,836.5,441,836.5,441Z"/><path class="cls-3" d="M836.5,451.21s4.87,62.79,20.09,77.15H816.41C831.63,514,836.5,451.21,836.5,451.21Z"/><path class="cls-3" d="M836.5,481.84s7.88,75.72,32.5,93H804C828.62,557.56,836.5,481.84,836.5,481.84Z"/></g><g id="Tree2-11" data-name="Tree2"><polygon class="cls-2" points="1183.89 682 1190.28 522 1196.67 682 1183.89 682"/><path class="cls-3" d="M1190.5,511s4.06,35,16.75,43h-33.5C1186.44,546,1190.5,511,1190.5,511Z"/><path class="cls-3" d="M1190.5,520s7.27,55.35,30,68h-60C1183.23,575.35,1190.5,520,1190.5,520Z"/><path class="cls-3" d="M1190.5,547s11.76,66.74,48.5,82h-97C1178.74,613.74,1190.5,547,1190.5,547Z"/></g><g id="Tree2-12" data-name="Tree2"><polygon class="cls-2" points="1298.89 703 1305.28 543 1311.67 703 1298.89 703"/><path class="cls-3" d="M1305.5,532s4.06,35,16.75,43h-33.5C1301.44,567,1305.5,532,1305.5,532Z"/><path class="cls-3" d="M1305.5,541s7.27,55.35,30,68h-60C1298.23,596.35,1305.5,541,1305.5,541Z"/><path class="cls-3" d="M1305.5,568s11.76,66.74,48.5,82h-97C1293.74,634.74,1305.5,568,1305.5,568Z"/></g><g id="Tree2-13" data-name="Tree2"><polygon class="cls-2" points="1330.91 707 1334.86 547 1338.82 707 1330.91 707"/><path class="cls-3" d="M1335,536s2.51,35,10.36,43h-20.72C1332.49,571,1335,536,1335,536Z"/><path class="cls-3" d="M1335,545s4.5,55.35,18.55,68h-37.1C1330.5,600.35,1335,545,1335,545Z"/><path class="cls-3" d="M1335,572s7.27,66.74,30,82h-60C1327.73,638.74,1335,572,1335,572Z"/></g><g id="Tree2-14" data-name="Tree2"><polygon class="cls-2" points="1750.91 820 1754.86 660 1758.82 820 1750.91 820"/><path class="cls-3" d="M1755,649s2.51,35,10.36,43h-20.72C1752.49,684,1755,649,1755,649Z"/><path class="cls-3" d="M1755,658s4.5,55.35,18.55,68h-37.1C1750.5,713.35,1755,658,1755,658Z"/><path class="cls-3" d="M1755,685s7.27,66.74,30,82h-60C1747.73,751.74,1755,685,1755,685Z"/></g><g id="Tree2-15" data-name="Tree2"><polygon class="cls-2" points="1532.89 782 1539.28 622 1545.67 782 1532.89 782"/><path class="cls-3" d="M1539.5,611s4.06,35,16.75,43h-33.5C1535.44,646,1539.5,611,1539.5,611Z"/><path class="cls-3" d="M1539.5,620s7.27,55.35,30,68h-60C1532.23,675.35,1539.5,620,1539.5,620Z"/><path class="cls-3" d="M1539.5,647s11.76,66.74,48.5,82h-97C1527.74,713.74,1539.5,647,1539.5,647Z"/></g><g id="Tree2-16" data-name="Tree2"><polygon class="cls-2" points="1640.89 779 1647.28 619 1653.67 779 1640.89 779"/><path class="cls-3" d="M1647.5,608s4.06,35,16.75,43h-33.5C1643.44,643,1647.5,608,1647.5,608Z"/><path class="cls-3" d="M1647.5,617s7.27,55.35,30,68h-60C1640.23,672.35,1647.5,617,1647.5,617Z"/><path class="cls-3" d="M1647.5,644s11.76,66.74,48.5,82h-97C1635.74,710.74,1647.5,644,1647.5,644Z"/></g><g id="Tree2-17" data-name="Tree2"><polygon class="cls-2" points="1767.89 835 1774.28 675 1780.67 835 1767.89 835"/><path class="cls-3" d="M1774.5,664s4.06,35,16.75,43h-33.5C1770.44,699,1774.5,664,1774.5,664Z"/><path class="cls-3" d="M1774.5,673s7.27,55.35,30,68h-60C1767.23,728.35,1774.5,673,1774.5,673Z"/><path class="cls-3" d="M1774.5,700s11.76,66.74,48.5,82h-97C1762.74,766.74,1774.5,700,1774.5,700Z"/></g><g id="Tree2-18" data-name="Tree2"><polygon class="cls-2" points="1845.89 835 1852.28 675 1858.67 835 1845.89 835"/><path class="cls-3" d="M1852.5,664s4.06,35,16.75,43h-33.5C1848.44,699,1852.5,664,1852.5,664Z"/><path class="cls-3" d="M1852.5,673s7.27,55.35,30,68h-60C1845.23,728.35,1852.5,673,1852.5,673Z"/><path class="cls-3" d="M1852.5,700s11.76,66.74,48.5,82h-97C1840.74,766.74,1852.5,700,1852.5,700Z"/></g></g></svg>