<svg id="Trees2" xmlns="http://www.w3.org/2000/svg" viewBox="0 0 1920 1080"><defs><style>.cls-1{fill:#3a453c;}.cls-2{fill:#495c4c;}.cls-3{fill:#415243;}</style></defs><title>trees2</title><g id="Tree2"><polygon class="cls-1" points="279.89 756 286.28 596 292.67 756 279.89 756"/><path class="cls-2" d="M286.5,585s4.06,35,16.75,43h-33.5C282.44,620,286.5,585,286.5,585Z"/><path class="cls-2" d="M286.5,594s7.27,55.35,30,68h-60C279.23,649.35,286.5,594,286.5,594Z"/><path class="cls-2" d="M286.5,621s11.76,66.74,48.5,82H238C274.74,687.74,286.5,621,286.5,621Z"/></g><g id="Tree2-2" data-name="Tree2"><polygon class="cls-1" points="1218.89 708 1225.28 548 1231.67 708 1218.89 708"/><path class="cls-2" d="M1225.5,537s4.06,35,16.75,43h-33.5C1221.44,572,1225.5,537,1225.5,537Z"/><path class="cls-2" d="M1225.5,546s7.27,55.35,30,68h-60C1218.23,601.35,1225.5,546,1225.5,546Z"/><path class="cls-2" d="M1225.5,573s11.76,66.74,48.5,82h-97C1213.74,639.74,1225.5,573,1225.5,573Z"/></g><g id="Tree2-3" data-name="Tree2"><polygon class="cls-1" points="372.07 775 376.35 593.48 380.64 775 372.07 775"/><path class="cls-2" d="M376.5,581s2.72,39.71,11.23,48.78H365.27C373.78,620.71,376.5,581,376.5,581Z"/><path class="cls-2" d="M376.5,591.21s4.87,62.79,20.09,77.15H356.41C371.63,654,376.5,591.21,376.5,591.21Z"/><path class="cls-2" d="M376.5,621.84s7.88,75.72,32.5,93H344C368.62,697.56,376.5,621.84,376.5,621.84Z"/></g><g id="Tree2-4" data-name="Tree2"><polygon class="cls-1" points="587.07 752 591.35 570.48 595.64 752 587.07 752"/><path class="cls-2" d="M591.5,558s2.72,39.71,11.23,48.78H580.27C588.78,597.71,591.5,558,591.5,558Z"/><path class="cls-2" d="M591.5,568.21s4.87,62.79,20.09,77.15H571.41C586.63,631,591.5,568.21,591.5,568.21Z"/><path class="cls-2" d="M591.5,598.84s7.88,75.72,32.5,93H559C583.62,674.56,591.5,598.84,591.5,598.84Z"/></g><g id="Tree2-5" data-name="Tree2"><polygon class="cls-1" points="794.07 730 798.35 548.48 802.64 730 794.07 730"/><path class="cls-2" d="M798.5,536s2.72,39.71,11.23,48.78H787.27C795.78,575.71,798.5,536,798.5,536Z"/><path class="cls-2" d="M798.5,546.21s4.87,62.79,20.09,77.15H778.41C793.63,609,798.5,546.21,798.5,546.21Z"/><path class="cls-2" d="M798.5,576.84s7.88,75.72,32.5,93H766C790.62,652.56,798.5,576.84,798.5,576.84Z"/></g><g id="Tree2-6" data-name="Tree2"><polygon class="cls-1" points="1800.07 905 1804.35 723.48 1808.64 905 1800.07 905"/><path class="cls-2" d="M1804.5,711s2.72,39.71,11.23,48.78h-22.46C1801.78,750.71,1804.5,711,1804.5,711Z"/><path class="cls-2" d="M1804.5,721.21s4.87,62.79,20.09,77.15h-40.18C1799.63,784,1804.5,721.21,1804.5,721.21Z"/><path class="cls-2" d="M1804.5,751.84s7.88,75.72,32.5,93h-65C1796.62,827.56,1804.5,751.84,1804.5,751.84Z"/></g><g id="Tree2-7" data-name="Tree2"><polygon class="cls-1" points="1435.89 764 1442.28 604 1448.67 764 1435.89 764"/><path class="cls-2" d="M1442.5,593s4.06,35,16.75,43h-33.5C1438.44,628,1442.5,593,1442.5,593Z"/><path class="cls-2" d="M1442.5,602s7.27,55.35,30,68h-60C1435.23,657.35,1442.5,602,1442.5,602Z"/><path class="cls-2" d="M1442.5,629s11.76,66.74,48.5,82h-97C1430.74,695.74,1442.5,629,1442.5,629Z"/></g><g id="Tree2-8" data-name="Tree2"><polygon class="cls-1" points="1556.89 806 1563.28 646 1569.67 806 1556.89 806"/><path class="cls-2" d="M1563.5,635s4.06,35,16.75,43h-33.5C1559.44,670,1563.5,635,1563.5,635Z"/><path class="cls-2" d="M1563.5,644s7.27,55.35,30,68h-60C1556.23,699.35,1563.5,644,1563.5,644Z"/><path class="cls-2" d="M1563.5,671s11.76,66.74,48.5,82h-97C1551.74,737.74,1563.5,671,1563.5,671Z"/></g><g id="Tree2-9" data-name="Tree2"><polygon class="cls-1" points="1894.89 882 1901.28 722 1907.67 882 1894.89 882"/><path class="cls-2" d="M1901.5,711s4.06,35,16.75,43h-33.5C1897.44,746,1901.5,711,1901.5,711Z"/><path class="cls-2" d="M1901.5,720s7.27,55.35,30,68h-60C1894.23,775.35,1901.5,720,1901.5,720Z"/><path class="cls-2" d="M1901.5,747s11.76,66.74,48.5,82h-97C1889.74,813.74,1901.5,747,1901.5,747Z"/></g><g id="Darker"><g id="Tree2-10" data-name="Tree2"><polygon class="cls-1" points="494.89 713 501.28 553 507.67 713 494.89 713"/><path class="cls-3" d="M501.5,542s4.06,35,16.75,43h-33.5C497.44,577,501.5,542,501.5,542Z"/><path class="cls-3" d="M501.5,551s7.27,55.35,30,68h-60C494.23,606.35,501.5,551,501.5,551Z"/><path class="cls-3" d="M501.5,578s11.76,66.74,48.5,82H453C489.74,644.74,501.5,578,501.5,578Z"/></g><g id="Tree2-11" data-name="Tree2"><polygon class="cls-1" points="992.07 700 996.35 540 1000.64 700 992.07 700"/><path class="cls-3" d="M996.5,529s2.72,35,11.23,43H985.27C993.78,564,996.5,529,996.5,529Z"/><path class="cls-3" d="M996.5,538s4.87,55.35,20.09,68H976.41C991.63,593.35,996.5,538,996.5,538Z"/><path class="cls-3" d="M996.5,565s7.88,66.74,32.5,82H964C988.62,631.74,996.5,565,996.5,565Z"/></g><g id="Tree2-12" data-name="Tree2"><polygon class="cls-1" points="182.07 790 186.35 608.48 190.64 790 182.07 790"/><path class="cls-3" d="M186.5,596s2.72,39.71,11.23,48.78H175.27C183.78,635.71,186.5,596,186.5,596Z"/><path class="cls-3" d="M186.5,606.21s4.87,62.79,20.09,77.15H166.41C181.63,669,186.5,606.21,186.5,606.21Z"/><path class="cls-3" d="M186.5,636.84s7.88,75.72,32.5,93H154C178.62,712.56,186.5,636.84,186.5,636.84Z"/></g><g id="Tree2-13" data-name="Tree2"><polygon class="cls-1" points="682.07 705 686.35 523.48 690.64 705 682.07 705"/><path class="cls-3" d="M686.5,511s2.72,39.71,11.23,48.78H675.27C683.78,550.71,686.5,511,686.5,511Z"/><path class="cls-3" d="M686.5,521.21s4.87,62.79,20.09,77.15H666.41C681.63,584,686.5,521.21,686.5,521.21Z"/><path class="cls-3" d="M686.5,551.84s7.88,75.72,32.5,93H654C678.62,627.56,686.5,551.84,686.5,551.84Z"/></g><g id="Tree2-14" data-name="Tree2"><polygon class="cls-1" points="1075.89 731 1082.28 571 1088.67 731 1075.89 731"/><path class="cls-3" d="M1082.5,560s4.06,35,16.75,43h-33.5C1078.44,595,1082.5,560,1082.5,560Z"/><path class="cls-3" d="M1082.5,569s7.27,55.35,30,68h-60C1075.23,624.35,1082.5,569,1082.5,569Z"/><path class="cls-3" d="M1082.5,596s11.76,66.74,48.5,82h-97C1070.74,662.74,1082.5,596,1082.5,596Z"/></g><g id="Tree2-15" data-name="Tree2"><polygon class="cls-1" points="1312.91 751 1316.86 591 1320.82 751 1312.91 751"/><path class="cls-3" d="M1317,580s2.51,35,10.36,43h-20.72C1314.49,615,1317,580,1317,580Z"/><path class="cls-3" d="M1317,589s4.5,55.35,18.55,68h-37.1C1312.5,644.35,1317,589,1317,589Z"/><path class="cls-3" d="M1317,616s7.27,66.74,30,82h-60C1309.73,682.74,1317,616,1317,616Z"/></g><g id="Tree2-16" data-name="Tree2"><polygon class="cls-1" points="1718.89 841 1725.28 681 1731.67 841 1718.89 841"/><path class="cls-3" d="M1725.5,670s4.06,35,16.75,43h-33.5C1721.44,705,1725.5,670,1725.5,670Z"/><path class="cls-3" d="M1725.5,679s7.27,55.35,30,68h-60C1718.23,734.35,1725.5,679,1725.5,679Z"/><path class="cls-3" d="M1725.5,706s11.76,66.74,48.5,82h-97C1713.74,772.74,1725.5,706,1725.5,706Z"/></g></g></svg>