<svg xmlns="http://www.w3.org/2000/svg" xmlns:xlink="http://www.w3.org/1999/xlink" viewBox="0 0 1921 1080.5"><defs><style>.cls-1{fill:url(#radial-gradient);}.cls-2{fill:#452a17;}.cls-3{opacity:0.5;fill:url(#radial-gradient-2);}.cls-4{fill:#1f1f1f;}.cls-5{fill:#ffc843;}.cls-6{fill:#fff;}.cls-7{fill:#3b3b3b;}.cls-8{fill:#362116;}.cls-9{fill:#261914;}.cls-10{fill:#211611;}</style><radialGradient id="radial-gradient" cx="965.62" cy="1014.93" r="268.65" gradientTransform="translate(-824.06 762.44) scale(1.86 0.23)" gradientUnits="userSpaceOnUse"><stop offset="0" stop-color="#4e3319"/><stop offset="0.33" stop-color="#4b3118" stop-opacity="0.97"/><stop offset="0.53" stop-color="#432c16" stop-opacity="0.86"/><stop offset="0.7" stop-color="#352311" stop-opacity="0.68"/><stop offset="0.84" stop-color="#21150a" stop-opacity="0.42"/><stop offset="0.97" stop-color="#070402" stop-opacity="0.09"/><stop offset="1" stop-opacity="0"/></radialGradient><radialGradient id="radial-gradient-2" cx="960.5" cy="268.5" r="191" gradientUnits="userSpaceOnUse"><stop offset="0" stop-color="#ffd342" stop-opacity="0.5"/><stop offset="1" stop-color="#ffd342" stop-opacity="0"/></radialGradient></defs><title>underground</title><g id="Cave3"><ellipse class="cls-1" cx="967.5" cy="1000.5" rx="543" ry="80"/><path class="cls-2" d="M98.5-.5l83.4,33.6,30.67,34.59L226,52.86l42.18,36.57,36.42-15.82V89.43l51.77-17.79,36.42,34.58,106.4-18.77,15.34,26.68L671.73,90.41v12.85l33.55-5.93,48.88,16.8L872.07,87.45l17.25,26.68L999.56,82.51l86.27,20.75,24.92-18.78v7.91s53.68-22.73,58.47-21.74S1260.29,125,1260.29,125l44.09-15.81L1324.51,125l37.39-15.81L1434.75,125,1476,92.39l62.3,13.83L1567,79.54l33.55,6.92,25.88-24.7h47.93l41.22-33.6,25.88,7.9L1776-.5Z" transform="translate(0.5 0.5)"/></g><g id="Light"><circle class="cls-3" cx="960.5" cy="268.5" r="191"/><polygon class="cls-4" points="961.5 249.5 959.5 249.5 959.5 182.66 961.5 135.98 959.5 106.91 959.5 0.5 961.5 0.5 961.5 106.91 963.5 135.98 961.5 183.26 961.5 249.5"/><g id="Bulb"><path class="cls-5" d="M967,268.92c0,7.22-3.13,13.08-7,13.08s-7-5.86-7-13.08a18.64,18.64,0,0,1,2.76-10.41A13.35,13.35,0,0,0,957.5,254h5s1,3.73,2.24,5.33A19.59,19.59,0,0,1,967,268.92Z" transform="translate(0.5 0.5)"/><path class="cls-6" d="M954.2,271.17A12.77,12.77,0,0,0,959,281,34.25,34.25,0,0,1,954.2,271.17Z" transform="translate(0.5 0.5)"/></g><path class="cls-4" d="M956.1,248.92l7.8.08C963.6,242.46,956.1,243.27,956.1,248.92Z" transform="translate(0.5 0.5)"/><rect class="cls-7" x="954.5" y="249.42" width="12" height="8.08" rx="3.38"/></g><g id="Cave2"><path class="cls-8" d="M0,1049.39s499-73.62,662-21.5,460,32.26,538,9.92,410-72.79,500-46.32,154.93,49.63,198,88.51H0Z" transform="translate(0.5 0.5)"/><polygon class="cls-8" points="32.5 0 1888.5 0 1855.65 41.4 1752.27 41.4 1640.2 65.98 1602.52 41.4 1560.97 65.98 1445.03 55.63 1379.33 84.09 1306.87 73.74 1127.16 103.5 1046.01 73.74 999.63 84.09 980.31 64.69 960.98 72.45 894.32 51.75 793.84 84.09 762.92 84.09 738.76 93.15 592.88 65.98 474.04 62.1 397.71 84.09 314.62 51.75 248.92 84.09 175.49 65.98 125.25 84.09 98.2 51.75 57.62 24.58 32.5 0"/></g><g id="Cave1"><path class="cls-9" d="M63,1080s163-55.58,376-40.42,241,36.75,380,25.72,234-41.34,341-43.18,354,17.91,464,37.67,296,3.21,296,3.21v17Z" transform="translate(0.5 0.5)"/><polygon class="cls-10" points="112 21 216 65 329 21 343 43 383 13 511 65 612 24 696 48 851 19 878 39 946 27 1008 39 1087 13 1221 54 1338 13 1353 39 1391 24 1419 39 1601 13 1674 32 1718 13 1837 39 1902 13 1921 0 0 0 49 32 112 21"/></g></svg>