<?xml version="1.0" encoding="UTF-8"?>
<svg xmlns="http://www.w3.org/2000/svg" xmlns:xlink="http://www.w3.org/1999/xlink" width="32" height="32" viewBox="0 0 32 32" version="1.1">
<g id="surface1">
<path style=" stroke:none;fill-rule:nonzero;fill:rgb(94.509804%,76.862746%,54.509807%);fill-opacity:1;" d="M 29.03125 16 C 29.03125 8.804688 23.195312 2.96875 16 2.96875 C 8.804688 2.96875 2.96875 8.804688 2.96875 16 C 2.96875 23.195312 8.804688 29.03125 16 29.03125 C 23.195312 29.03125 29.03125 23.195312 29.03125 16 Z M 29.03125 16 "/>
<path style=" stroke:none;fill-rule:nonzero;fill:rgb(83.137256%,90.588236%,97.254902%);fill-opacity:1;" d="M 11.222656 25.992188 L 11.222656 7.003906 C 11.222656 6.453125 10.777344 6.007812 10.226562 6.007812 C 9.675781 6.007812 9.226562 6.453125 9.226562 7.003906 L 9.226562 25.992188 Z M 11.222656 25.992188 "/>
<path style=" stroke:none;fill-rule:nonzero;fill:rgb(99.215686%,56.862748%,61.960787%);fill-opacity:1;" d="M 23.714844 17.03125 L 11.222656 17.03125 L 11.222656 7.847656 L 23.714844 7.847656 C 23.761719 7.847656 23.789062 7.90625 23.757812 7.941406 L 20.050781 12.441406 L 23.757812 16.9375 C 23.789062 16.972656 23.761719 17.03125 23.714844 17.03125 Z M 23.714844 17.03125 "/>
<path style=" stroke:none;fill-rule:nonzero;fill:rgb(90.980393%,40.392157%,49.019608%);fill-opacity:1;" d="M 20.050781 12.441406 L 23.757812 7.964844 C 23.789062 7.925781 23.761719 7.890625 23.714844 7.890625 L 21.851562 7.890625 C 21.902344 7.890625 21.929688 7.925781 21.898438 7.964844 L 18.449219 12.132812 C 18.296875 12.316406 18.296875 12.582031 18.449219 12.765625 L 21.898438 16.976562 C 21.929688 17.011719 21.902344 17.097656 21.851562 17.097656 L 23.714844 17.097656 C 23.761719 17.097656 23.789062 17.007812 23.757812 16.96875 Z M 20.050781 12.441406 "/>
<path style=" stroke:none;fill-rule:nonzero;fill:rgb(29.803923%,26.274511%,44.705883%);fill-opacity:1;" d="M 23.714844 17.40625 L 11.222656 17.40625 C 11.015625 17.40625 10.847656 17.238281 10.847656 17.03125 L 10.847656 7.847656 C 10.847656 7.640625 11.015625 7.472656 11.222656 7.472656 L 23.714844 7.472656 C 23.882812 7.472656 24.035156 7.570312 24.105469 7.722656 C 24.175781 7.871094 24.15625 8.050781 24.046875 8.179688 L 20.535156 12.441406 L 24.046875 16.699219 C 24.15625 16.828125 24.175781 17.007812 24.105469 17.15625 C 24.035156 17.308594 23.882812 17.40625 23.714844 17.40625 Z M 11.597656 16.65625 L 23.042969 16.65625 L 19.761719 12.679688 C 19.648438 12.539062 19.648438 12.339844 19.761719 12.199219 L 23.042969 8.222656 L 11.597656 8.222656 Z M 11.597656 16.65625 "/>
<path style=" stroke:none;fill-rule:nonzero;fill:rgb(29.803923%,26.274511%,44.705883%);fill-opacity:1;" d="M 11.222656 26.367188 L 9.226562 26.367188 C 9.019531 26.367188 8.851562 26.199219 8.851562 25.992188 L 8.851562 7.003906 C 8.851562 6.246094 9.46875 5.632812 10.226562 5.632812 C 10.980469 5.632812 11.597656 6.246094 11.597656 7.003906 L 11.597656 25.992188 C 11.597656 26.199219 11.429688 26.367188 11.222656 26.367188 Z M 9.601562 25.617188 L 10.847656 25.617188 L 10.847656 7.003906 C 10.847656 6.660156 10.570312 6.382812 10.226562 6.382812 C 9.882812 6.382812 9.601562 6.660156 9.601562 7.003906 Z M 9.601562 25.617188 "/>
</g>
</svg>
